<?xml version="1.0" encoding="UTF-8"?>
<svg width="500px" height="462px" viewBox="0 0 500 462" version="1.1" xmlns="http://www.w3.org/2000/svg" xmlns:xlink="http://www.w3.org/1999/xlink">
    <title>Shape</title>
    <g id="Brand-v2" stroke="none" stroke-width="1" fill="none" fill-rule="evenodd">
        <path d="M430.426015,317.229885 C404.965969,317.229885 381.522561,303.321839 369.296698,280.816092 L332.114948,212.413793 L300.857071,270.448276 C285.228132,301.298851 241.366272,305.344828 225.485253,274.62069 L192.714898,211.275862 L143.307285,303.068966 L84.0685657,303.448276 L154.902949,168.666667 C169.901689,140.091954 210.360474,139.586207 226.241492,167.655172 L261.532644,230.367816 L295.815478,167.781609 C311.192337,139.712644 351.525082,139.586207 366.901941,167.655172 L414.923116,254.643678 C423.619864,270.448276 447.441391,264.252874 447.441391,246.298851 L447.567431,130.609195 C447.567431,87.6206897 412.654399,52.5977011 369.800857,52.5977011 L130.451223,52.5977011 C87.5976809,52.5977011 52.6846483,87.6206897 52.6846483,130.609195 L52.6846483,331.137931 C52.6846483,374.126437 87.5976809,409.149425 130.451223,409.149425 L451.600706,409.149425 L451.600706,462 L130.451223,462 C58.4824805,462 0,403.333333 0,331.137931 L0,130.862069 C0,58.5402299 58.3564406,0 130.451223,0 L369.548777,0 C441.643559,0 500,58.5402299 500,130.862069 L500,247.436782 C500,286 468.868162,317.229885 430.426015,317.229885 Z" id="Shape" fill="#6E07F3" fill-rule="nonzero"></path>
    </g>
</svg>