<svg width="154" height="22" viewBox="0 0 154 22" fill="none" xmlns="http://www.w3.org/2000/svg">
<path d="M30.956 6.9047C31.9563 7.65772 32.5668 8.60547 32.8007 9.77394C32.9825 10.7347 33.0605 11.9421 33.0215 13.3962L32.9306 21.7832H29.7479L29.8389 13.3962C29.8648 12.2537 29.8389 11.4358 29.7609 10.9684C29.683 10.488 29.5531 10.0855 29.3452 9.74798C28.9685 9.15076 28.319 8.83917 27.3837 8.83917C26.4484 8.83917 25.7988 9.13778 25.4221 9.74798C25.2143 10.0855 25.0844 10.462 25.0194 10.9035C24.9545 11.3968 24.9285 12.2277 24.9285 13.3962V21.7832H21.7458V13.3832C21.7458 12.2147 21.7199 11.3838 21.6549 10.8905C21.577 9.99465 21.1743 9.39743 20.4728 9.08584C20.135 8.91706 19.7453 8.83917 19.2907 8.83917C18.3554 8.83917 17.6928 9.13778 17.3291 9.74798C17.1213 10.0855 16.9914 10.462 16.9264 10.9035C16.8615 11.3968 16.8355 12.2277 16.8355 13.3962V21.7832H13.6528V5.81413L16.8355 6.25555V6.69697C17.6019 6.09976 18.4723 5.78817 19.4595 5.78817C20.3299 5.78817 21.1223 5.95695 21.8108 6.30749C22.5123 6.64504 23.0839 7.15138 23.5385 7.81351C24.0192 7.19033 24.6167 6.69698 25.3312 6.33345C26.0457 5.96993 26.7861 5.78817 27.5655 5.78817C28.8126 5.77518 29.9558 6.15169 30.956 6.9047Z" fill="#08415C"/>
<path d="M36.0353 6.7749C37.841 6.04785 39.5037 5.68433 41.0236 5.68433C42.8812 5.68433 44.3102 6.21663 45.3234 7.28123C45.947 7.90442 46.3497 8.59251 46.5445 9.35851C46.7264 10.1115 46.8303 11.1372 46.8303 12.4355V21.7962H43.6477V20.8355C43.206 21.186 42.7124 21.4716 42.1278 21.6794C41.5562 21.8871 40.9587 21.9909 40.3351 21.9909C39.2309 21.9909 38.2437 21.7443 37.3863 21.2379C36.5289 20.7446 35.8534 20.0305 35.3728 19.1217C34.9961 18.4336 34.8142 17.6936 34.8142 16.9016C34.8142 16.0967 34.9961 15.3307 35.3598 14.6296C35.7235 13.9285 36.2302 13.3443 36.8797 12.8769C37.5292 12.4225 38.2177 12.1109 38.9581 11.9551C39.6986 11.7993 40.569 11.7214 41.5952 11.7214H43.6866V11.4747C43.6866 9.57922 42.7383 8.68339 40.8417 8.76129C40.3611 8.78726 38.8152 9.08587 36.1912 9.6701L36.0353 6.7749ZM38.2047 17.6806C38.3346 17.9662 38.5295 18.1999 38.7763 18.4076C39.192 18.7452 39.7765 18.901 40.53 18.901C41.0496 18.901 41.5432 18.7842 41.9979 18.5634C42.4526 18.3297 42.8033 18.0311 43.0241 17.6546L43.0501 17.6287C43.2839 17.2911 43.4268 16.9276 43.5048 16.5251C43.5827 16.1226 43.6087 15.4865 43.6087 14.6036L41.5432 14.6296C40.7508 14.6296 40.1663 14.6685 39.7765 14.7594C39.3868 14.8373 39.0621 14.9931 38.7893 15.2268C38.2437 15.6163 37.9839 16.1486 37.9839 16.8107C38.0098 17.1093 38.0748 17.395 38.2047 17.6806Z" fill="#08415C"/>
<path d="M58.5088 6.39833L57.6644 9.3974C57.1189 9.11177 56.5213 8.95598 55.8588 8.95598C55.0664 8.95598 54.4168 9.1637 53.8972 9.57916C53.3776 9.99461 53.0529 10.5659 52.9359 11.2929V11.2669C52.832 12.0329 52.7801 12.8898 52.7801 13.8246V21.7702H49.5974V5.77515L52.7801 6.37236V6.96958C53.7413 6.2685 54.8196 5.90498 56.0277 5.90498C56.924 5.90498 57.7554 6.07375 58.5088 6.39833Z" fill="#08415C"/>
<path d="M65.4975 5.87911H69.1088L68.1735 8.81326H65.4845L65.2636 16.0837C65.2376 16.9536 65.2766 17.5508 65.3546 17.8624C65.4585 18.5245 65.7962 18.8621 66.3808 18.8621C66.9784 18.8621 67.7318 18.5375 68.6281 17.9014L69.9012 20.9004L68.81 21.3418C68.2254 21.5755 67.7838 21.7313 67.472 21.8092C67.1602 21.8871 66.8095 21.9391 66.4068 21.9391C65.3935 21.9391 64.5232 21.6664 63.8217 21.1081C63.1202 20.5629 62.6266 19.7969 62.3538 18.8102C62.1719 18.0831 62.081 17.3171 62.107 16.4992L62.2888 8.82625H59.7947V5.87911H62.2888V1.41296H65.4715V5.87911H65.4975Z" fill="#08415C"/>
<path d="M102.585 6.9047C103.585 7.65772 104.196 8.60547 104.43 9.77394C104.612 10.7347 104.69 11.9421 104.651 13.3962L104.56 21.7832H101.377L101.468 13.3962C101.494 12.2537 101.468 11.4358 101.39 10.9684C101.312 10.488 101.182 10.0855 100.974 9.74798C100.598 9.15076 99.9481 8.83917 99.0128 8.83917C98.0775 8.83917 97.428 9.13778 97.0513 9.74798C96.8434 10.0855 96.7135 10.462 96.6486 10.9035C96.5836 11.3968 96.5576 12.2277 96.5576 13.3962V21.7832H93.375V13.3832C93.375 12.2147 93.349 11.3838 93.2841 10.8905C93.2061 9.99465 92.8034 9.39743 92.1019 9.08584C91.7642 8.91706 91.3745 8.83917 90.9198 8.83917C89.9845 8.83917 89.335 9.13778 88.9583 9.74798C88.7504 10.0855 88.6205 10.462 88.5556 10.9035C88.4906 11.3968 88.4646 12.2277 88.4646 13.3962V21.7832H85.282V5.81413L88.4646 6.25555V6.69697C89.2311 6.09976 90.1014 5.78817 91.0887 5.78817C91.959 5.78817 92.7515 5.95695 93.4399 6.30749C94.1414 6.64504 94.713 7.15138 95.1677 7.81351C95.6483 7.19033 96.2459 6.69698 96.9604 6.33345C97.6748 5.96993 98.4153 5.78817 99.1947 5.78817C100.455 5.77518 101.598 6.15169 102.585 6.9047Z" fill="#08415C"/>
<path d="M110.392 1.10136C110.769 1.47787 110.951 1.94525 110.951 2.50352C110.951 3.06179 110.769 3.52918 110.392 3.90568C110.016 4.28219 109.548 4.46395 108.989 4.46395C108.431 4.46395 107.963 4.28219 107.586 3.90568C107.21 3.52918 107.028 3.06179 107.028 2.50352C107.028 1.94525 107.21 1.47787 107.586 1.10136C107.963 0.724852 108.431 0.543091 108.989 0.543091C109.548 0.543091 110.016 0.724852 110.392 1.10136ZM107.392 21.7832V5.8791H110.574V21.7832H107.392Z" fill="#08415C"/>
<path d="M116.823 6.83978C117.693 6.17764 118.667 5.84009 119.758 5.84009C120.59 5.84009 121.369 5.99588 122.11 6.29449C122.85 6.5931 123.474 7.02154 123.993 7.59279C124.643 8.29387 125.059 9.07285 125.253 9.90376C125.448 10.7347 125.552 11.9161 125.552 13.4611V21.7832H122.369V13.4611C122.369 12.1758 122.318 11.2929 122.227 10.8385C122.136 10.3841 121.928 9.98166 121.616 9.65708C121.07 9.16373 120.395 8.90407 119.59 8.90407C118.888 8.90407 118.291 9.08583 117.823 9.43637C117.355 9.78691 117.069 10.2673 116.965 10.8645C116.862 11.5526 116.81 12.4095 116.81 13.4481V21.7702H113.627V5.84009L116.81 6.28151V6.83978H116.823Z" fill="#08415C"/>
<path d="M136.971 6.96962V0.0107422H140.153V21.7832L136.971 21.7572V20.6018C136.061 21.3548 134.97 21.7183 133.723 21.7183C132.801 21.7183 131.943 21.5365 131.151 21.186C130.345 20.8354 129.683 20.3291 129.137 19.6929C128.514 18.9399 128.098 18.1609 127.903 17.356C127.708 16.5511 127.604 15.4215 127.604 13.9934C127.604 12.4614 127.708 11.241 127.903 10.3582C128.098 9.47534 128.514 8.64442 129.137 7.87843C129.683 7.22928 130.345 6.73593 131.151 6.38539C131.956 6.03485 132.814 5.85308 133.723 5.85308C134.983 5.8401 136.061 6.21661 136.971 6.96962ZM131.645 9.52727C131.151 9.94272 130.839 10.5399 130.709 11.3059C130.605 12.1368 130.553 13.0327 130.553 13.9934C130.553 15.1359 130.605 15.9538 130.709 16.4212C130.813 16.9016 131.034 17.343 131.359 17.7585C131.904 18.3557 132.658 18.6673 133.632 18.6673C134.398 18.6673 135.048 18.4596 135.581 18.0571C136.113 17.6546 136.438 17.0963 136.568 16.3823C136.672 15.6942 136.724 14.9022 136.724 13.9804C136.724 12.7081 136.672 11.7863 136.555 11.2151C136.438 10.6438 136.23 10.1764 135.918 9.79991C135.373 9.20269 134.619 8.8911 133.645 8.8911C132.801 8.90408 132.138 9.11181 131.645 9.52727Z" fill="#08415C"/>
<path d="M143.31 17.7195C144.739 18.5114 146.298 18.9009 147.961 18.9009C148.792 18.9009 149.429 18.7581 149.883 18.4595C150.325 18.1739 150.559 17.7584 150.559 17.2131C150.559 16.7328 150.416 16.3692 150.117 16.1096C149.831 15.8499 149.467 15.6422 149.026 15.4734C148.61 15.3436 148.142 15.2397 147.623 15.1359C146.869 14.9671 146.246 14.7853 145.752 14.5776C145.259 14.3699 144.791 14.1232 144.349 13.8246C143.765 13.3832 143.31 12.8509 142.985 12.2147C142.661 11.5785 142.505 10.9164 142.505 10.2283C142.505 9.50124 142.674 8.82613 143.024 8.20295C143.362 7.57976 143.83 7.07343 144.414 6.67095C145.388 6.00882 146.584 5.67126 147.974 5.67126C149.299 5.67126 150.689 5.94391 152.118 6.47621V9.87775C150.767 9.11175 149.377 8.72226 147.974 8.72226C147.324 8.72226 146.791 8.85209 146.35 9.09877L146.376 9.07281C145.921 9.41036 145.687 9.78687 145.687 10.2283C145.687 10.5658 145.804 10.8645 146.051 11.1371C146.285 11.4097 146.623 11.6305 147.064 11.7862H147.09C147.259 11.8512 147.714 11.968 148.467 12.1628C149.26 12.3315 149.896 12.5003 150.39 12.6951C150.883 12.8768 151.325 13.1235 151.715 13.4091H151.689C152.338 13.8505 152.832 14.3958 153.196 15.058C153.559 15.7201 153.741 16.4471 153.741 17.2131C153.741 17.9142 153.572 18.6023 153.248 19.2515C152.91 19.9006 152.442 20.4459 151.845 20.8614C150.805 21.5884 149.519 21.9519 147.974 21.9519C146.285 21.9519 144.739 21.6663 143.323 21.0821V17.7195H143.31Z" fill="#08415C"/>
<path d="M75.0715 13.8376L71.629 19.1347C71.4471 19.4073 71.3562 19.7319 71.3562 20.0695V21.5495C71.3562 21.6794 71.4601 21.7703 71.577 21.7703H82.3331C82.3331 20.0825 80.9691 18.7192 79.2803 18.7192H75.4482L75.9548 17.9403C76.8382 16.5641 76.4484 14.7335 75.0715 13.8376Z" fill="#FF7F11"/>
<path d="M71.3562 5.87907C71.3562 7.56686 72.7202 8.93007 74.4089 8.93007H78.2411L78.0592 9.20272C77.1629 10.5789 77.5526 12.4225 78.9296 13.3183L82.0473 8.51462C82.2291 8.24197 82.3201 7.9174 82.3201 7.57984C82.3201 6.63208 81.5536 5.86609 80.6054 5.86609H71.3562V5.87907Z" fill="#FF7F11"/>
<path d="M0.805404 17.5378C2.23435 18.3297 3.79319 18.7192 5.45596 18.7192C6.28735 18.7192 6.92388 18.5764 7.37854 18.2778C7.82021 17.9922 8.05404 17.5767 8.05404 17.0314C8.05404 16.5511 7.91115 16.1876 7.61237 15.9279C7.32658 15.6682 6.96285 15.4605 6.52118 15.2917C6.10548 15.1619 5.63783 15.058 5.11821 14.9542C4.36477 14.7854 3.74123 14.6036 3.2476 14.3959C2.75396 14.1882 2.28631 13.9415 1.84464 13.6429C1.26007 13.2015 0.805404 12.6692 0.480644 12.033C0.155885 11.3968 0 10.7347 0 10.0466C0 9.31956 0.168875 8.64444 0.519616 8.02126C0.857366 7.39808 1.32502 6.89174 1.90959 6.50225C2.88387 5.84012 4.07898 5.50256 5.46895 5.50256C6.79397 5.50256 8.18395 5.77521 9.61289 6.30751V9.70905C8.26189 8.94305 6.87192 8.55356 5.46895 8.55356C4.81943 8.55356 4.28683 8.68339 3.84516 8.93007L3.87114 8.9041C3.41647 9.24166 3.18265 9.61817 3.18265 10.0596C3.18265 10.3971 3.29956 10.6958 3.54638 10.9684C3.79319 11.241 4.11795 11.4618 4.55963 11.6175H4.58561C4.75448 11.6825 5.20915 11.7993 5.96259 11.9941C6.755 12.1628 7.39153 12.3316 7.88517 12.5264C8.3788 12.7081 8.82047 12.9548 9.21019 13.2404H9.18421C9.83372 13.6818 10.3274 14.2271 10.6911 14.8893C11.0548 15.5514 11.2367 16.2784 11.2367 17.0444C11.2367 17.7455 11.0678 18.4336 10.7431 19.0828C10.4053 19.7319 9.93765 20.2772 9.34009 20.6926C8.30086 21.4197 7.01481 21.7832 5.46895 21.7832C3.7802 21.7832 2.23435 21.4976 0.818395 20.9134V17.5378H0.805404Z" fill="#08415C"/>
</svg>
